<svg id="Layer_1" data-name="Layer 1" xmlns="http://www.w3.org/2000/svg" viewBox="0 0 215.44 143.57"><defs><style>.cls-1{fill:#fff;}</style></defs><g id="zu6IF1.tif"><path class="cls-1" d="M0,71.79Q0,45.62,0,19.43C0,7.55,7.57,0,19.53,0Q71.79,0,124,0c11.7,0,19.46,7.59,19.49,19.3q.1,52.48,0,105c0,11.73-7.77,19.28-19.49,19.29q-52.25,0-104.51,0c-12,0-19.51-7.47-19.52-19.41Q0,98,0,71.79Z"/><path class="cls-1" d="M215.42,71.86q0,23.07,0,46.13c0,6.64-2.71,10.7-8.24,12.82-4.31,1.66-7.95.13-11.44-2.24-11.4-7.76-22.64-15.77-34.27-23.17-4.46-2.84-6-5.85-5.89-11.13.4-16.53.18-33.07.11-49.61a4,4,0,0,1,2-3.81c12.74-8.59,25.43-17.27,38.12-25.93,3.76-2.57,7.65-3.81,12.17-1.87,5.65,2.44,7.36,7.11,7.38,12.68C215.46,41.11,215.42,56.48,215.42,71.86Z"/></g></svg>