<svg id="Layer_1" data-name="Layer 1" xmlns="http://www.w3.org/2000/svg" viewBox="0 0 119.65 165.03"><defs><style>.cls-1{fill:#fff;}</style></defs><g id="xHkIzU.tif"><path class="cls-1" d="M71.53,108c1.15,2.48,2.09,4.59,3.08,6.67,4.45,9.4,8.79,18.85,13.39,28.17,5.55,11.24-2.48,20.68-11.43,22-6,.9-12.29-2.89-15.6-9.75q-7.9-16.41-15.77-32.83c-.39-.82-.8-1.62-1.36-2.75-4.08,4.84-8,9.47-11.85,14.08-5.26,6.25-10.49,12.52-15.79,18.72-2.67,3.13-6.13,4.45-10.08,3.11S.47,150.61,0,146.55a17,17,0,0,1,0-1.75Q0,77.93.09,11.06A13.89,13.89,0,0,1,1.94,4C4.75-.49,10.08-1.3,14.29,2.08c5.26,4.22,10.22,8.81,15.28,13.28q35.85,31.7,71.69,63.44c5,4.41,10,8.78,14.92,13.3,3.86,3.55,4.52,8.33,1.89,12.13-2.06,3-5.15,3.77-8.52,3.78-11.58,0-23.17,0-34.75,0Z"/></g></svg>