<svg id="Layer_1" data-name="Layer 1" xmlns="http://www.w3.org/2000/svg" viewBox="0 0 149.48 122.85"><defs><style>.cls-1{fill:#fff;}</style></defs><g id="A6TDFV.tif"><path class="cls-1" d="M87.87,61.64q0,25.53,0,51c0,4-1.16,7.34-4.91,9.36A7.37,7.37,0,0,1,74.24,121q-13.39-12.1-26.88-24.1c-3.16-2.82-6.26-5.7-9.54-8.38a6.53,6.53,0,0,0-3.7-1.41C27.56,87,21,87.05,14.44,87,5.08,87,.1,82.08,0,72.79Q0,61.08,0,49.38c.07-8.78,5.39-14,14.21-14.05,6.73,0,13.46,0,20.18-.06a5.09,5.09,0,0,0,3.06-1.15q17.58-15.46,35-31.06C75.59.3,78.82-.71,82.75,1S87.83,6,87.85,9.85c.06,13.53,0,27.06,0,40.59Z" transform="translate(0 -0.15)"/><path class="cls-1" d="M149.48,62.67c-1.15,16.31-7.19,28.67-18.4,38.5-3.33,2.92-7.63,3-10.05.29s-1.94-6.62,1.24-9.53c5.68-5.18,10.33-11,12.44-18.54,4.23-15,1.13-28.3-9.75-39.63-1.09-1.13-2.32-2.14-3.38-3.3-2.52-2.75-2.65-6.65-.36-9a6.76,6.76,0,0,1,9.05-.27c9.84,8.43,16.26,18.91,18.37,31.79C149.24,56.64,149.3,60.38,149.48,62.67Z" transform="translate(0 -0.15)"/><path class="cls-1" d="M123,61.54a25.75,25.75,0,0,1-8.75,19.53c-2.85,2.56-7,2.71-9.43.29S102.2,74.9,105,72c2.27-2.34,4.46-4.66,4.94-8.08.67-4.66-.48-8.68-4-11.92-1.91-1.75-3.34-3.76-2.87-6.51.41-2.4,1.52-4.35,4-5.19A6.85,6.85,0,0,1,114.19,42,25.77,25.77,0,0,1,123,61.54Z" transform="translate(0 -0.15)"/></g></svg>