<svg id="Layer_1" data-name="Layer 1" xmlns="http://www.w3.org/2000/svg" viewBox="0 0 153.1 122.85"><defs><style>.cls-1{fill:#fff;}</style></defs><g id="A6TDFV.tif"><path class="cls-1" d="M87.87,61.64q0,25.53,0,51c0,4-1.16,7.34-4.91,9.36A7.37,7.37,0,0,1,74.24,121q-13.39-12.1-26.88-24.1c-3.16-2.82-6.26-5.7-9.54-8.38a6.53,6.53,0,0,0-3.7-1.41C27.56,87,21,87.05,14.44,87,5.08,87,.1,82.08,0,72.79Q0,61.08,0,49.38c.07-8.78,5.39-14,14.21-14.05,6.73,0,13.46,0,20.18-.06a5.09,5.09,0,0,0,3.06-1.15q17.58-15.46,35-31.06C75.59.3,78.82-.71,82.75,1S87.83,6,87.85,9.85c.06,13.53,0,27.06,0,40.59Z" transform="translate(0 -0.15)"/><path class="cls-1" d="M137.18,62.29c4.61,4.19,9.06,8.13,13.38,12.2,2.66,2.52,3.19,5.58,1.78,8.23-1.8,3.37-6.94,5.37-11.37,1.06q-5.72-5.55-11.43-11.1c-.44-.43-.9-.84-1.95-1.8-4.19,4.33-8.24,8.66-12.45,12.84-3,3-6,3.3-9.23,1.32a6,6,0,0,1-2-8.51,13.79,13.79,0,0,1,2-2.42c4.06-4,8.15-7.92,12.38-12-.54-.56-1-1.06-1.45-1.52-3.8-3.7-7.63-7.38-11.41-11.11-2.75-2.73-3.26-5.5-1.63-8.34,2.31-4,7.53-4.55,11.28-.88,4.24,4.15,8.27,8.5,12.51,12.89,1.06-1,1.56-1.4,2-1.86,3.77-3.74,7.52-7.49,11.31-11.22,2.56-2.52,5.4-3.15,8.26-1.91a6.27,6.27,0,0,1,3.1,8.84,13.16,13.16,0,0,1-2.2,2.75C146,53.72,142,57.66,137.18,62.29Z" transform="translate(0 -0.15)"/></g></svg>